<?xml version="1.0" standalone="no"?>
<!DOCTYPE svg PUBLIC "-//W3C//DTD SVG 20010904//EN"
 "http://www.w3.org/TR/2001/REC-SVG-20010904/DTD/svg10.dtd">
<svg version="1.0" xmlns="http://www.w3.org/2000/svg"
 width="1181.000000pt" height="1181.000000pt" viewBox="0 0 1181.000000 1181.000000"
 preserveAspectRatio="xMidYMid meet">
<metadata>
Created by potrace 1.14, written by Peter Selinger 2001-2017
</metadata>
<g transform="translate(0.000000,1181.000000) scale(0.100000,-0.100000)"
fill="#000000" stroke="none">
<path d="M7603 11803 c378 -2 996 -2 1375 0 378 1 68 2 -688 2 -756 0 -1066
-1 -687 -2z"/>
<path d="M7780 11709 c0 -10 29 -91 45 -124 8 -16 28 -45 45 -64 16 -18 30
-36 30 -38 0 -3 -47 2 -60 7 -3 1 -8 2 -12 1 -4 0 -45 8 -90 19 -46 11 -92 23
-103 25 -62 14 -185 64 -222 91 -20 15 -21 14 -16 -7 5 -18 3 -21 -12 -16 -10
4 -38 12 -64 19 -25 6 -52 15 -58 21 -7 5 -13 7 -13 4 0 -4 -21 3 -47 14 -61
26 -166 38 -158 18 12 -27 111 -98 168 -119 31 -12 59 -25 62 -31 4 -5 -3 -6
-17 0 -13 5 -43 12 -68 15 -25 4 -63 11 -85 16 -50 12 -145 13 -145 1 0 -15
47 -60 94 -90 l46 -28 -45 -13 c-70 -20 -73 -33 -15 -64 64 -35 79 -39 188
-45 21 -1 3 -21 -19 -21 -10 0 -19 -5 -19 -12 0 -6 -3 -9 -6 -5 -4 3 -25 -3
-48 -15 l-41 -21 35 -12 c33 -12 153 -28 194 -27 15 1 16 -2 7 -11 -7 -7 -16
-12 -20 -12 -4 0 -29 -13 -55 -30 l-48 -30 39 -11 c22 -7 59 -14 83 -18 24 -3
45 -8 48 -10 2 -3 -14 -14 -37 -26 -62 -31 -56 -37 54 -55 6 -1 37 -3 70 -4
43 -1 56 -4 45 -11 -13 -9 -13 -11 0 -20 8 -5 41 -15 73 -22 31 -7 57 -15 57
-20 0 -4 -12 -14 -27 -22 l-27 -14 34 -21 c19 -12 52 -26 73 -32 41 -11 48
-24 16 -32 -57 -15 51 -63 159 -71 42 -3 49 -12 17 -20 -15 -4 -36 -15 -47
-26 l-21 -19 29 -12 c58 -23 117 -39 125 -33 5 3 9 1 9 -4 0 -5 -17 -21 -37
-34 l-38 -25 -44 19 c-58 24 -350 123 -426 144 -162 44 -279 74 -298 78 -12 3
-54 11 -92 20 -120 25 -331 62 -410 71 -27 3 -87 10 -133 16 -92 11 -154 16
-292 25 -113 7 -528 7 -620 0 -194 -15 -227 -17 -250 -21 -14 -2 -54 -6 -90
-10 -36 -4 -76 -8 -90 -10 -33 -4 -268 -43 -300 -50 -14 -3 -38 -8 -55 -11
-100 -17 -360 -84 -522 -133 -101 -30 -141 -44 -298 -103 -368 -136 -777 -345
-1113 -569 -114 -76 -316 -222 -332 -239 -3 -3 -23 -18 -45 -35 -22 -16 -42
-31 -45 -35 -3 -3 -34 -30 -70 -60 -254 -215 -487 -450 -708 -715 -117 -140
-339 -450 -428 -598 -63 -105 -73 -123 -83 -142 -6 -11 -29 -51 -51 -90 -131
-228 -295 -601 -396 -900 -60 -180 -155 -530 -169 -626 -4 -24 -8 -46 -10 -49
-6 -10 -46 -247 -60 -360 -30 -235 -40 -408 -40 -710 0 -291 6 -405 31 -620 3
-25 7 -58 9 -75 2 -27 9 -73 21 -160 22 -150 102 -509 155 -690 56 -189 166
-493 229 -630 10 -22 28 -62 40 -90 97 -221 265 -522 423 -760 97 -145 295
-413 337 -455 3 -3 28 -32 55 -65 84 -101 124 -143 290 -310 178 -179 218
-215 356 -332 216 -182 528 -402 774 -545 653 -379 1409 -628 2130 -703 33 -3
69 -8 80 -10 129 -26 845 -26 1060 0 22 3 63 7 90 10 43 4 232 30 290 40 426
72 805 181 1205 348 203 84 539 251 622 309 14 10 28 18 31 18 11 0 179 107
357 227 62 42 263 193 340 256 293 239 585 540 869 893 126 157 326 460 450
681 51 93 191 368 191 377 0 2 16 40 36 83 139 299 287 766 360 1133 13 70 34
190 39 225 6 50 16 124 21 148 2 10 6 48 9 85 3 37 8 78 10 92 27 163 27 824
0 1041 -3 18 -7 62 -10 98 -3 37 -7 77 -10 90 -2 14 -9 61 -15 105 -9 66 -35
211 -56 311 -2 11 -6 32 -9 46 -9 48 -76 313 -97 379 -68 221 -153 461 -194
544 -8 16 -14 33 -14 37 0 25 -190 410 -286 579 -94 166 -251 404 -375 570
-51 69 -98 130 -104 136 -5 6 -26 30 -45 54 -157 196 -445 495 -617 640 l-41
36 19 24 c23 30 24 78 4 107 -9 12 -17 51 -20 87 -5 78 -16 100 -98 190 -58
63 -83 117 -86 185 -1 10 -6 8 -19 -7 l-18 -21 -20 37 c-10 20 -18 39 -17 44
2 4 5 40 7 80 2 40 9 87 16 103 6 17 11 30 10 30 -1 0 1 7 3 15 46 150 105
250 221 377 60 65 96 117 96 137 0 8 4 17 9 21 5 3 13 20 17 38 3 17 14 42 23
53 27 34 13 161 -22 208 -28 36 -78 76 -100 80 -7 1 -39 23 -72 50 -60 48
-217 130 -236 124 -5 -2 10 -26 35 -53 52 -58 56 -68 20 -54 -35 13 -41 5 -21
-25 17 -26 12 -42 -9 -25 -7 6 -41 13 -76 17 l-62 5 17 -26 c9 -14 17 -28 17
-31 0 -3 -31 -2 -69 1 -86 7 -147 -3 -132 -21 6 -7 49 -32 96 -56 69 -35 84
-46 82 -64 -2 -25 -15 -36 -42 -36 -10 0 -39 -7 -63 -17 l-43 -16 33 -14 c33
-14 33 -14 10 -27 -25 -13 -57 -54 -49 -63 3 -3 35 -8 71 -10 36 -3 63 -9 61
-13 -2 -4 4 -15 15 -25 20 -18 19 -19 -32 -39 -58 -23 -71 -47 -36 -63 23 -11
23 -11 -7 -19 -16 -4 -46 -14 -65 -22 -34 -14 -34 -14 -14 -31 21 -17 21 -17
-10 -18 -17 -1 -44 -6 -60 -12 -27 -11 -28 -13 -12 -30 21 -23 20 -31 -4 -31
-11 0 -38 -7 -60 -16 -45 -18 -42 -36 8 -49 24 -7 20 -10 -43 -30 l-70 -22 30
-14 c36 -17 60 -38 51 -46 -3 -4 -6 -3 -6 1 0 3 -14 -1 -31 -9 -34 -18 -32
-25 11 -40 l29 -10 -40 -17 -40 -17 -35 31 c-19 17 -49 52 -67 77 -36 52 -147
268 -147 286 0 6 -9 30 -20 53 -11 22 -20 47 -20 55 0 7 -3 17 -7 21 -4 3 -8
12 -9 19 -4 21 -44 171 -51 187 -3 8 -7 21 -9 29 -4 22 -64 80 -124 119 -90
60 -142 109 -191 182 -19 27 -37 50 -41 50 -4 0 -8 -16 -10 -36 l-3 -35 -33
32 c-18 17 -46 48 -62 68 -16 20 -38 47 -49 61 -11 14 -20 22 -21 19z m1648
-2020 c38 -35 47 -75 10 -43 -30 25 -57 57 -58 67 0 14 15 6 48 -24z"/>
</g>
</svg>
